<mxfile host="app.diagrams.net" modified="2024-02-21T07:47:09.361Z" agent="Mozilla/5.0 (Windows NT 10.0; Win64; x64) AppleWebKit/537.36 (KHTML, like Gecko) Chrome/121.0.0.0 Safari/537.36" version="23.1.2" etag="D84xsVg8OdjimB9zE9WU" type="github">
  <diagram name="Page-1" id="HJz1edBQs_1DKb7S4L2r">
    <mxGraphModel>
      <root>
        <mxCell id="0" />
        <mxCell id="1" parent="0" />
      </root>
    </mxGraphModel>
  </diagram>
</mxfile>
